# xmcd
#
# Track frame offsets: 
#        150
#        20414
#        49174
#        69229
#        90836
#        114606
#        136920
#        151514
#        170395
#        194357
#        216762
#
# Disc length: 3118 seconds
#
# Revision: 2
# Processed by: cddbd v1.5.2PL0 Copyright (c) Steve Scherf et al.
# Submitted via: ExactAudioCopyFreeDBPlugin 1.0
#
DISCID=840c2c0b
DTITLE=Elliott Murphy - Notes From The Underground
DYEAR=2008
DGENRE=Rock
TTITLE0=And General Robert E. Lee
TTITLE1=Lost And Lonely
TTITLE2=The Valley Below
TTITLE3=On My Mind
TTITLE4=Ophelia
TTITLE5=What's That
TTITLE6=Crepuscule
TTITLE7=Scandinavian Skies
TTITLE8=Razzmatazz
TTITLE9=Frankenstein's Daughter
TTITLE10=Crying Creatures Of The Universe
EXTD=
EXTT0=
EXTT1=
EXTT2=
EXTT3=
EXTT4=
EXTT5=
EXTT6=
EXTT7=
EXTT8=
EXTT9=
EXTT10=
PLAYORDER=
